<?xml version="1.0" encoding="utf-8" ?><svg xmlns="http://www.w3.org/2000/svg" xmlns:xlink="http://www.w3.org/1999/xlink" width="1070" height="1070" viewBox="0 0 1070 1070"><path fill="#2E313B" d="M1070 649.786L1070 644.736C1069.98 634.38 1069.85 623.951 1069.71 613.518L1069.71 613.49L1069.7 612.488C1069.46 593.804 1069.22 575.11 1069.66 556.799C1068.87 533.803 1069.01 509.034 1069.15 484.814L1069.16 483.141L1069.16 482.622C1069.23 472.545 1069.29 462.577 1069.28 452.882L1069.35 255.679L1069.46 182.771C1069.47 179.324 1069.51 175.852 1069.55 172.367C1069.75 156.285 1069.95 139.911 1066.18 124.48C1057.67 89.478 1018.97 90.719 988.366 91.7018L988.365 91.7018C983.636 91.8519 979.087 91.9979 974.883 92.0033L883.135 92.0155L580.007 92.3277L222.749 92.2966L112.97 92.0533C107.615 92.0209 101.814 91.8059 95.7944 91.5815L95.7917 91.5815C55.3489 90.0728 4.28023 88.1694 0.617981 138.895C1.50211 150.582 1.36963 166.739 1.25337 180.619C1.21956 184.665 1.18712 188.521 1.18307 192.011L1.01813 285.438L1.01408 573.49C1.01813 578.329 0.846436 585.7 0.640961 594.402L0.640961 594.416L0.640615 594.431C-0.0583077 624.313 -1.12385 669.87 3.31227 682.615C3.4718 683.072 3.6097 683.535 3.76921 683.99C3.86385 684.265 3.97469 684.532 4.0761 684.805C4.73717 693.851 19.6362 707.648 27.611 711.559C37.3607 716.342 44.4648 717.967 55.3394 718.093C79.0946 718.367 102.812 718.346 126.527 718.324C130.897 718.32 135.254 718.316 139.613 718.314L291.037 718.221L740.86 718.186L937.173 718.177C941.225 718.178 945.371 718.172 949.567 718.166L949.697 718.166L951.083 718.166L951.294 718.165L952.113 718.165C963.964 718.148 976.12 718.131 987.394 718.263C990.459 718.297 993.372 718.341 996.159 718.386L996.16 718.386C1036.6 719.016 1047.6 719.187 1069.09 679.061L1069.51 678.269C1069.85 668.883 1069.98 659.37 1070 649.786Z"/><path fill="#2E313B" d="M820.444 212.78C856.696 205.749 891.019 212.561 922.888 230.568C937.405 239.088 943.552 244.279 955.512 256.149C983.406 284.799 998.511 323.522 997.386 363.495C996.632 394.088 987.674 420.845 970.474 445.962C950.157 481.569 900.985 506.99 860.875 510.314C820.367 513.622 780.231 500.435 749.576 473.743C715.865 444.922 701.042 408.154 697.593 364.924C697.988 303.326 725.512 255.724 779.898 226.11C792.945 219.398 806.082 215.387 820.444 212.78Z"/><defs><linearGradient id="gradient_0" gradientUnits="userSpaceOnUse" x1="1643.6899" y1="667.47601" x2="1641.74" y2="555.29602"><stop offset="0" stop-color="#54544C"/><stop offset="1" stop-color="#837B56"/></linearGradient></defs><path fill="url(#gradient_0)" d="M697.593 364.924C702.653 365.397 705.567 365.563 710.64 365.432C712.811 424.136 752.143 474.931 808.432 491.741C864.721 508.549 925.469 487.632 959.473 439.734C958.974 447.646 952.266 450.833 949.493 458.648C957.785 461.253 959.512 457.883 961.542 453.906C963.165 450.738 964.98 447.184 970.474 445.962C950.157 481.569 900.985 506.99 860.875 510.314C820.367 513.622 780.231 500.435 749.576 473.743C715.865 444.922 701.042 408.154 697.593 364.924Z"/><path fill="#9C915D" d="M955.512 256.149C983.406 284.799 998.511 323.522 997.386 363.495C996.632 394.088 987.674 420.845 970.474 445.962C964.98 447.184 963.165 450.738 961.542 453.906C959.512 457.883 957.785 461.253 949.493 458.648C952.266 450.833 958.974 447.646 959.473 439.734C998.063 385.388 991.98 311.169 945.071 263.827C948.943 262.316 952.278 258.935 955.512 256.149Z"/><defs><linearGradient id="gradient_1" gradientUnits="userSpaceOnUse" x1="1591.1801" y1="525.36102" x2="1559.8" y2="478.61099"><stop offset="0" stop-color="#9A8F53"/><stop offset="1" stop-color="#BBAD6B"/></linearGradient></defs><path fill="url(#gradient_1)" d="M697.593 364.924C697.988 303.326 725.512 255.724 779.898 226.11C782.582 229.154 786.492 234.194 789.84 236.011C739.8 259.284 708.595 310.285 710.64 365.432C705.567 365.563 702.653 365.397 697.593 364.924Z"/><path fill="#C4B368" d="M820.444 212.78C856.696 205.749 891.019 212.561 922.888 230.568C916.333 233.248 915.246 233.111 912.934 239.746C883.799 223.978 849.935 219.294 817.608 226.556C818.081 225.754 818.591 224.97 819.089 224.198C821.644 220.255 823.957 216.667 820.444 212.78Z"/><path fill="#FDD01D" d="M912.934 239.746C915.246 233.111 916.333 233.248 922.888 230.568C937.405 239.088 943.552 244.279 955.512 256.149C952.278 258.935 948.943 262.316 945.071 263.827C935.602 254.265 924.767 246.153 912.934 239.746Z"/><path fill="#FDD01D" d="M779.898 226.11C792.945 219.398 806.082 215.387 820.444 212.78C823.957 216.667 821.644 220.255 819.089 224.198C818.591 224.97 818.081 225.754 817.608 226.556C808.035 228.707 798.734 231.876 789.84 236.011C786.492 234.194 782.582 229.154 779.898 226.11Z"/><path fill="#FEFEFD" d="M830.948 240.368C897.217 231.179 958.438 277.331 967.842 343.575C977.247 409.815 931.295 471.185 865.091 480.811C798.568 490.479 736.849 444.268 727.391 377.718C717.948 311.167 764.36 249.601 830.948 240.368Z"/><path fill="#2E313B" d="M839.369 307.594C868.683 303.125 896.055 323.288 900.463 352.601C904.884 381.915 884.654 409.246 855.341 413.606C826.092 417.952 798.849 397.804 794.453 368.568C790.044 339.335 810.144 312.054 839.369 307.594Z"/><path fill="#FEFEFD" d="M844.991 321.682C866.459 320.241 885.038 336.472 886.495 357.946C887.951 379.417 871.723 398.007 850.256 399.475C828.762 400.944 810.157 384.707 808.7 363.216C807.244 341.724 823.498 323.123 844.991 321.682Z"/><path fill="#2E313B" d="M153.132 219.798C186.011 207.519 222.136 207.146 255.257 218.746C303.674 235.707 340.067 276.228 351.759 326.183C363.44 376.137 348.795 428.6 312.925 465.278C283.458 495.404 242.683 511.751 200.565 510.325C158.447 508.897 118.874 489.828 91.5143 457.776C69.2164 431.641 56.5534 398.643 55.6463 364.295C54.5593 322.583 70.8779 282.299 100.702 253.116C115.667 238.473 133.529 227.125 153.132 219.798Z"/><defs><linearGradient id="gradient_2" gradientUnits="userSpaceOnUse" x1="1193.9301" y1="611.29797" x2="1249.3101" y2="462.90799"><stop offset="0" stop-color="#726D53"/><stop offset="1" stop-color="#B7A965"/></linearGradient></defs><path fill="url(#gradient_2)" d="M255.257 218.746C303.674 235.707 340.067 276.228 351.759 326.183C363.44 376.137 348.795 428.6 312.925 465.278L312.133 463.546L313.411 460.422C308.875 460.028 305.679 459.498 301.208 458.667C335.352 425.476 349.83 376.946 339.453 330.471C329.078 283.997 295.331 246.237 250.299 230.724C250.606 228.746 250.414 227.988 249.737 226.115C250.809 221.19 250.44 222.764 255.257 218.746Z"/><path fill="#59574C" d="M103.68 452.021C128.611 479.754 163.752 496.133 201.026 497.386C238.3 498.641 274.463 484.661 301.208 458.667C305.679 459.498 308.875 460.028 313.411 460.422L312.133 463.546L312.925 465.278C283.458 495.404 242.683 511.751 200.565 510.325C158.447 508.897 118.874 489.828 91.5143 457.776C92.996 457.815 94.237 457.913 95.3361 457.998L95.3419 457.998L95.3425 457.998C98.8387 458.268 100.844 458.423 104.179 456.24L103.68 452.021Z"/><path fill="#C4B368" d="M100.702 253.116C105.047 257.336 105.789 258.107 111.181 260.975C84.5508 286.279 69.1908 321.208 68.5513 357.933C67.4022 363.042 68.3728 362.748 65.2041 365.221C61.358 365.113 59.4545 364.878 55.6463 364.295C54.5593 322.583 70.8779 282.299 100.702 253.116Z"/><path fill="#797355" d="M55.6463 364.295C59.4545 364.878 61.358 365.113 65.2041 365.221C68.3728 362.748 67.4022 363.042 68.5513 357.933C67.9389 392.61 80.487 426.231 103.68 452.021L104.179 456.24C100.844 458.423 98.8387 458.268 95.3425 457.998L95.3419 457.998L95.3361 457.998C94.237 457.913 92.996 457.815 91.5143 457.776C69.2164 431.641 56.5534 398.643 55.6463 364.295Z"/><path fill="#C4B368" d="M153.132 219.798C186.011 207.519 222.136 207.146 255.257 218.746C250.44 222.764 250.809 221.19 249.737 226.115C250.414 227.988 250.606 228.746 250.299 230.724C224.36 221.781 196.323 220.833 169.821 228.002C166.767 223.609 160.403 223.241 154.128 220.276L153.132 219.798Z"/><path fill="#FDD01D" d="M100.702 253.116C115.667 238.473 133.529 227.125 153.132 219.798L154.128 220.276C160.403 223.241 166.767 223.609 169.821 228.002C147.843 233.951 127.677 245.283 111.181 260.975C105.789 258.107 105.047 257.336 100.702 253.116Z"/><path fill="#FEFEFD" d="M190.061 240.259C256.521 231.646 317.397 278.506 326.061 344.959C334.738 411.409 287.932 472.322 221.484 481.054C154.959 489.797 93.9558 442.919 85.2659 376.383C76.5896 309.848 123.512 248.884 190.061 240.259Z"/><path fill="#2E313B" d="M198.113 307.596C227.247 303.518 254.209 323.687 258.54 352.781C262.86 381.875 242.913 409.011 213.868 413.578C184.464 418.2 156.926 397.968 152.557 368.526C148.174 339.085 168.644 311.723 198.113 307.596Z"/><path fill="#FEFEFD" d="M203.593 321.721C224.857 320.644 243.041 336.819 244.459 358.055C245.865 379.29 229.982 397.732 208.768 399.482C194.751 400.639 181.193 394.147 173.296 382.498C165.412 370.849 164.416 355.85 170.69 343.257C176.963 330.664 189.551 322.433 203.593 321.721Z"/><path fill="#FEFEFD" d="M408.061 129.969C410.796 131.194 411.256 131.746 413.567 133.584C414.296 138.273 414.27 142.814 414.232 147.489C414.232 148.615 414.219 149.747 414.219 150.891L414.207 518.021L414.195 634.937C414.195 638.144 414.207 641.371 414.207 644.613L414.208 645.056C414.22 660.25 414.232 675.723 414.131 690.796C414.105 694.775 412.252 695.589 409.479 698.369C406.592 696.026 403.819 694.815 403.805 690.936C403.728 677.749 403.742 664.284 403.728 651.118L403.716 563.942L403.845 288.052C403.845 278.467 403.819 267.531 403.793 255.839C403.69 216.566 403.588 168.737 404.124 134.662C405.657 132.835 406.974 131.271 408.061 129.969Z"/><path fill="#FEFEFD" d="M639.26 130.947C639.963 130.996 640.575 131.031 641.113 131.062C644.716 131.269 645.393 131.307 648.205 133.898C649.685 143.127 649.354 182.1 649.15 206.098L649.15 206.187C649.099 212.55 649.047 217.855 649.047 221.259L648.984 416.164L649.035 606C649.047 609.247 649.099 614.198 649.162 620.162L649.166 620.569L649.166 620.603C649.41 645.101 649.817 686.127 648.166 696.89C646.735 696.745 645.714 696.692 644.933 696.652C642.468 696.525 642.351 696.521 639.388 694.118C638.021 684.97 638.339 654.027 638.543 634.203L638.544 634.153C638.594 628.629 638.646 623.972 638.646 620.895L638.684 462.512L638.672 241.097L638.607 171.706C638.607 169.127 638.581 166.327 638.558 163.404L638.554 163.032C638.465 152.338 638.363 140.067 639.26 130.947Z"/><path fill="#FEFEFD" d="M697.107 622.978C706.347 620.687 716.096 623.583 722.573 630.544C729.066 637.504 731.275 647.437 728.336 656.487C725.399 665.538 717.796 672.288 708.454 674.116C694.5 676.848 680.916 667.96 677.837 654.081C674.757 640.204 683.307 626.403 697.107 622.978Z"/><path fill="#2E313B" d="M692.609 641.933C695.138 642.178 697.746 643.481 699.944 644.744C703.35 646.701 705.759 645.761 708.386 644.735L708.389 644.734L708.403 644.729C709.91 644.135 711.496 643.515 713.362 643.412C714.793 646.972 714.588 649.571 714.294 653.042C714.243 653.68 714.192 654.35 714.14 655.059C707.931 653.431 706.664 652.644 705.298 652.382C704.324 652.196 703.306 652.277 700.423 652.508L700.386 652.511L700.366 652.513L700.355 652.514C698.851 652.636 696.846 652.798 694.092 652.985C692.447 650.4 692.506 647.992 692.583 644.938L692.583 644.921C692.609 643.993 692.635 643.005 692.609 641.933Z"/><path fill="#FEFEFD" d="M697.299 551.63C706.487 549.436 716.146 552.371 722.573 559.305C728.989 566.239 731.174 576.097 728.286 585.095C725.399 594.091 717.873 600.832 708.621 602.727C694.615 605.593 680.904 596.701 677.811 582.749C674.733 568.799 683.397 554.948 697.299 551.63Z"/><path fill="#2E313B" d="M696.431 566.957C701.285 569.451 710.55 573.228 712.122 578.053L709.196 580.133L696.393 587.827L696.431 566.957Z"/><path fill="#FEFEFD" d="M55.4543 623.103C69.6004 619.769 83.7464 628.61 86.9531 642.782C90.1597 656.954 81.19 671.02 66.9926 674.096C52.9628 677.132 39.1236 668.304 35.9548 654.312C32.7981 640.32 41.5002 626.392 55.4543 623.103Z"/><path fill="#2E313B" d="M50.2022 641.976C56.26 643.618 57.6903 644.468 59.2504 644.79C60.5495 645.06 61.9217 644.959 66.1815 644.644C67.2819 644.563 68.5756 644.467 70.1114 644.358C71.751 646.904 71.5312 649.216 71.241 652.268L71.2402 652.276L71.2388 652.279L71.2348 652.32C71.1456 653.256 71.0442 654.262 70.9928 655.364C68.2836 654.258 65.7921 653.102 63.1465 651.871C58.1756 652.687 56.8089 652.893 51.8002 652.617C49.7886 649.986 49.894 648.186 50.0725 645.174L50.0752 645.137C50.1252 644.216 50.1901 643.184 50.2022 641.976Z"/><path fill="#FEFEFD" d="M56.2979 551.591C70.3412 548.858 83.9762 557.927 86.8774 571.94C89.7907 585.952 80.8832 599.698 66.9155 602.777C57.716 604.802 48.1447 601.726 41.8463 594.724C35.5587 587.721 33.5133 577.876 36.5036 568.948C39.494 560.019 47.0456 553.389 56.2979 551.591Z"/><path fill="#2E313B" d="M54.5472 566.723C57.5497 568.273 60.5279 569.859 63.4926 571.483C67.0439 573.473 69.4855 574.51 70.4818 577.977L67.4022 580.101L54.4187 588.016L54.5472 566.723Z"/><path fill="#FDD01D" d="M866.493 635.269L866.53 635.267L866.574 635.264L866.597 635.263L866.608 635.263C874.114 634.898 882.402 634.495 887.567 636.459C895.9 639.632 894.227 667.874 890.444 673.485C888.107 673.429 885.09 673.587 881.829 673.759L881.768 673.762L881.767 673.762C873.319 674.207 863.251 674.737 858.996 671.91C852.121 667.336 853.131 641.467 857.807 635.527C860.361 635.566 863.339 635.422 866.471 635.27L866.493 635.269Z"/><path fill="#FDD01D" d="M754.24 635.517C756.501 635.552 759.351 635.387 762.417 635.209L762.431 635.208L762.441 635.208C770.833 634.723 780.911 634.141 785.469 637.252C792.357 641.948 791.233 667.523 786.875 673.454C782.435 673.341 778.21 673.621 774.302 673.881L774.25 673.883C759.159 674.892 749.103 675.562 751.364 651.741C751.555 649.808 751.529 648.16 751.504 646.632C751.453 642.981 751.416 640.022 754.24 635.517Z"/><path fill="#FDD01D" d="M214.915 635.562C216.565 635.548 218.2 635.529 219.848 635.51C229.777 635.394 239.603 635.282 249.545 636.135C250.286 644.848 251.832 666.685 247.565 673.555C245.238 673.5 242.283 673.656 239.097 673.825L239.018 673.829L238.94 673.833L238.937 673.835L238.922 673.836L238.9 673.836C230.551 674.283 220.684 674.811 216.296 671.921C209.473 667.43 210.584 641.398 214.915 635.562Z"/><path fill="#FDD01D" d="M866.47 583.059L866.586 583.053C874.585 582.667 884.285 582.202 887.951 584.396C896.003 589.211 894.584 614.034 889.575 620.951C886.327 620.887 882.927 621.115 879.577 621.34L879.555 621.341L879.532 621.343L879.505 621.345L879.493 621.347L879.487 621.347C871.266 621.899 863.259 622.436 857.872 618.738C852.659 611.382 852.594 590.605 858.306 583.301C860.451 583.345 863.321 583.209 866.47 583.059Z"/><path fill="#FDD01D" d="M815.573 635.239L815.588 635.237L815.611 635.237C822.593 634.861 830.008 634.463 835.293 635.897C844.954 638.518 842.654 667.242 838.947 673.527C836.507 673.458 833.443 673.612 830.173 673.777L830.157 673.778L830.107 673.781L830.065 673.783C821.876 674.2 812.368 674.682 807.832 671.965C801.046 667.892 802.145 641.05 806.337 635.558C809.139 635.582 812.296 635.414 815.555 635.24L815.573 635.239Z"/><path fill="#FDD01D" d="M172.658 635.267L172.72 635.264C179.877 634.91 187.646 634.528 192.949 636.144C201.971 638.896 199.543 667.542 196.592 673.487C192.27 673.365 188.074 673.647 184.153 673.911L184.139 673.912L184.094 673.915L184.055 673.917L184.05 673.917C169.077 674.934 158.257 675.668 160.366 652.516C160.52 650.777 160.508 649.186 160.495 647.679L160.495 647.661L160.493 647.377C160.429 643.274 160.378 639.769 163.624 635.535C166.315 635.578 169.423 635.427 172.658 635.267Z"/><path fill="#FDD01D" d="M275.661 635.255L275.703 635.252C283.292 634.829 291.701 634.363 296.685 636.65C304.275 640.124 302.92 668.172 299.177 673.445C296.245 673.383 293.021 673.571 289.742 673.762L289.736 673.762L289.689 673.765L289.679 673.766L289.639 673.766L289.623 673.767L289.561 673.771L289.542 673.773L289.523 673.773C281.133 674.263 272.427 674.77 267.268 671.341C261.723 664.264 261.735 641.951 266.809 635.552C269.404 635.602 272.455 635.433 275.661 635.255Z"/><path fill="#FDD01D" d="M815.41 582.979L815.435 582.979C823.049 582.582 831.563 582.138 836.353 584.184C844.671 587.731 842.743 614.982 838.793 621.022C836.533 620.983 833.632 621.145 830.513 621.322L830.502 621.323L830.481 621.323L830.478 621.323C822.066 621.797 811.942 622.368 807.551 619.351C800.969 614.829 801.929 588.91 806.465 583.263C809.004 583.312 812.075 583.151 815.303 582.982L815.312 582.982L815.354 582.982L815.41 582.979Z"/><path fill="#FDD01D" d="M164.517 583.316C167.38 583.348 170.447 583.153 173.526 582.955L173.533 582.955C181.531 582.442 189.68 581.922 194.994 585.353C200.464 592.189 200.553 614.622 195.683 620.888C192.439 620.832 189.039 621.056 185.665 621.282L185.628 621.282L185.626 621.282C177.439 621.824 169.407 622.356 163.929 618.8C158.447 611.373 158.23 590.591 164.517 583.316Z"/><path fill="#FDD01D" d="M763.454 583.015L763.491 583.013L763.528 583.01L763.535 583.009C771.495 582.629 780.296 582.211 785.24 584.711C791.694 591.439 792.382 614.185 786.299 620.894C785.469 620.898 784.639 620.903 783.82 620.906L783.8 620.906C773.074 620.963 762.871 621.017 752.054 620.369C752.016 618.842 751.913 616.95 751.798 614.828L751.797 614.804L751.796 614.79C751.247 604.417 750.41 588.602 754.814 583.259C757.346 583.302 760.277 583.163 763.34 583.019L763.351 583.018L763.394 583.018L763.454 583.015Z"/><path fill="#FDD01D" d="M214.992 583.224C226.838 583.18 237.621 583.259 249.468 583.794C250.222 592.663 251.987 614.059 247.309 620.86C244.957 620.821 241.941 621.003 238.71 621.201L238.706 621.201C230.4 621.705 220.563 622.302 216.231 619.515C209.447 615.136 210.622 588.972 214.992 583.224Z"/><path fill="#FDD01D" d="M120.27 635.3L120.33 635.297C128.495 634.832 138.296 634.277 142.628 636.933C149.874 641.373 148.493 667.535 144.097 673.528C132.674 673.521 121.238 673.437 109.813 673.279C109.776 671.862 109.686 670.093 109.597 668.092L109.594 668.038C109.094 657.585 108.299 640.906 112.152 635.605C114.375 635.633 117.201 635.474 120.27 635.3Z"/><path fill="#FDD01D" d="M909.483 635.663C911.184 635.65 913.497 635.529 916.077 635.393C924.154 634.972 934.99 634.41 938.886 636.449C946.887 640.649 945.594 666.94 940.906 673.418C936.42 673.317 932.23 673.585 928.433 673.828C913.227 674.796 904.129 675.375 906.213 650.542C906.341 649.018 906.341 647.639 906.341 646.344C906.341 642.571 906.341 639.515 909.483 635.663Z"/><path fill="#FDD01D" d="M267.141 583.429C278.513 583.301 289.885 583.416 301.26 583.77C301.284 584.238 301.31 584.762 301.348 585.333L301.352 585.419C301.841 594.562 302.971 615.734 299.177 620.883C297.45 620.891 295.713 620.903 293.976 620.914C283.969 620.982 273.951 621.048 263.971 620.337C263.933 618.556 263.83 616.514 263.729 614.318C263.206 603.663 262.515 589.384 267.141 583.429Z"/><path fill="#FDD01D" d="M109.265 617.201C109.532 613.357 109.405 609.212 109.265 605.101L109.256 604.847L109.256 604.803L109.256 604.8C109.093 599.398 108.932 594.068 109.698 589.573C111.322 580.07 140.098 582.341 145.861 585.254C147.606 591.991 147.248 606.79 147.019 616.229L147.018 616.261L147.017 616.289L147.012 616.522C146.972 617.91 146.947 619.174 146.921 620.273C146.105 620.342 145.145 620.434 144.059 620.537L144.047 620.538L144.039 620.54L144.031 620.54C134.015 621.487 113.975 623.381 109.265 617.201Z"/><path fill="#FDD01D" d="M919.178 583.029L919.181 583.029L919.234 583.025L919.245 583.024L919.256 583.024C927.299 582.522 935.313 582.023 940.587 585.393C946.055 592.736 946.042 613.427 940.765 620.872L940.407 620.875C929.009 620.959 918.274 621.037 906.864 620.54C906.813 619.203 906.724 617.597 906.633 615.809C906.046 605.282 905.126 588.465 909.663 583.381C912.725 583.432 915.951 583.231 919.178 583.029Z"/><path fill="#FEFEFD" d="M468.508 364.709L468.502 364.759C468.132 368.39 467.774 371.934 471.877 374.521C473.703 372.393 473.677 370.04 473.638 367.295C473.6 364.464 473.564 361.213 475.555 357.356C490.111 353.369 494.122 375.292 488.218 388.033C486.482 389.95 484.526 391.662 482.405 393.141C477.729 396.311 471.927 397.344 466.445 395.988C460.874 394.55 456.16 390.866 453.41 385.813C450.599 380.78 450.013 374.804 451.789 369.32C454.306 361.607 459.327 358.581 465.87 355.025C469.174 357.853 468.838 361.314 468.508 364.702L468.508 364.709Z"/><path fill="#FEFEFD" d="M585.667 355.524C618.596 364.317 597.423 414.244 566.473 389.686C558.244 377.57 560.928 359.459 575.777 356.112C579.443 357.787 579.201 360.849 578.92 364.346L578.92 364.36L578.92 364.362C578.678 367.459 578.409 370.896 580.798 374.01L582.971 373.88C585.245 369.582 584.811 361.433 585.667 355.524Z"/><path fill="#FDD01D" d="M62.5327 151.625C71.5552 147.852 81.9309 152.158 85.6364 161.217C89.3432 170.276 84.9591 180.619 75.8744 184.258C66.8898 187.858 56.6804 183.53 53.0141 174.565C49.3465 165.602 53.5887 155.359 62.5327 151.625Z"/><path fill="#FDD01D" d="M705.86 151.564C711.853 149.211 718.651 150.323 723.571 154.463C728.503 158.602 730.766 165.108 729.475 171.414C728.185 177.718 723.545 182.812 717.4 184.687C708.377 187.434 698.807 182.572 695.702 173.672C692.609 164.772 697.094 155.014 705.86 151.564Z"/><path fill="#FEFEFD" d="M131.945 150.386C141.261 149.811 149.4 156.631 150.462 165.902C151.522 175.175 145.133 183.655 135.933 185.202C129.531 186.275 123.064 183.732 119.116 178.587C115.168 173.441 114.376 166.534 117.059 160.629C119.743 154.724 125.48 150.784 131.945 150.386Z"/><path fill="#FEFEFD" d="M774.468 150.442C783.796 149.735 792.026 156.491 793.149 165.779C794.286 175.067 787.91 183.6 778.684 185.149C772.333 186.214 765.906 183.705 761.956 178.616C758.009 173.526 757.179 166.678 759.785 160.791C762.405 154.904 768.04 150.928 774.468 150.442Z"/><path fill="#FEFEFD" d="M523.117 638.717C527.781 638.951 528.203 638.776 531.972 641.213C538.477 650.604 536.099 676.935 534.043 688.305C534.043 688.308 530.669 692.17 530.285 692.6C525.646 692.178 524.458 692.461 520.894 689.828C515.755 682.281 516.736 667.553 517.465 656.638L517.465 656.632L517.469 656.569C517.622 654.308 517.762 652.213 517.827 650.381C518.057 644.24 518.58 642.8 523.117 638.717Z"/><path fill="#FEFEFD" d="M980.811 587.854L980.915 587.849L980.916 587.849C998.627 586.966 1028.26 585.491 1014.04 605.992C1012.41 605.993 1010.01 606.131 1007.12 606.295L1007.11 606.295C989.602 607.283 954.659 609.254 971.892 588.119C974.031 588.19 977.157 588.035 980.802 587.854L980.811 587.854Z"/><path fill="#FEFEFD" d="M571.548 520.133L571.586 520.132C585.808 519.539 605.434 518.726 607.8 528.988C606.663 533.906 606.381 534.428 602.968 538.147C600.646 538.133 597.62 538.31 594.224 538.51L594.215 538.51L594.208 538.511L594.195 538.511C580.126 539.335 559.701 540.531 556.622 530.062C557.479 524.947 558.002 524.38 561.299 520.322C563.922 520.446 567.456 520.301 571.43 520.138L571.489 520.136L571.507 520.135L571.548 520.133Z"/><path fill="#FEFEFD" d="M449.91 520.572C452.12 520.594 455.097 520.429 458.484 520.241L458.486 520.241C472.786 519.445 494.379 518.244 496.602 529.003C495.476 533.933 495.145 534.443 491.721 538.182C489.388 538.157 486.359 538.326 482.951 538.517L482.888 538.521L482.813 538.525L482.807 538.525C468.74 539.317 448.504 540.456 445.476 530.046C446.331 525.089 446.779 524.549 449.91 520.572Z"/><path fill="#FEFEFD" d="M329.652 588.404C331.608 588.404 334.163 588.28 337.077 588.138L337.079 588.138C351.378 587.439 374.261 586.321 375.642 597.436C374.057 602.246 373.776 602.788 370.096 606.245C367.974 606.222 365.15 606.358 361.97 606.514L361.965 606.514C348.1 607.19 327.123 608.211 324.364 597.89C325.602 592.726 325.921 592.188 329.652 588.404Z"/><path fill="#FEFEFD" d="M562.219 433.564L602.241 433.595L602.1 452.77L561.862 452.8C561.798 446.231 561.975 440.127 562.219 433.564Z"/><path fill="#FEFEFD" d="M451.15 433.654L491.133 433.571L490.927 452.804L450.803 452.723C450.817 446.366 450.932 440.008 451.15 433.654Z"/><path fill="#FEFEFD" d="M470.342 160.838C483.057 173.987 495.912 187.708 472.463 198.176C444.135 192.827 458.675 174.066 470.342 160.838Z"/><path fill="#FEFEFD" d="M581.68 161.105C596.017 172.843 605.614 188.88 583.52 198.215C555.562 192.655 570.051 174.138 581.68 161.105Z"/><path fill="#FEFEFD" d="M581.528 225.995C593.896 231.328 606.878 255.444 582.408 262.133C556.391 255.688 570.372 238.485 581.528 225.995Z"/><path fill="#FEFEFD" d="M469.972 225.8C484.053 233.701 493.458 253.201 472.604 262.124C444.644 257.141 458.292 239.141 469.972 225.8Z"/><path fill="#FEFEFD" d="M581.169 289.575C594.343 295.769 604.937 316.824 584.057 325.868C555.83 321.886 570.231 302.322 581.169 289.575Z"/><path fill="#FEFEFD" d="M469.972 289.59C472.578 290.87 480.143 298.364 481.767 301.261C488.883 313.875 483.338 320.443 473.612 325.939C444.965 321.627 458.331 303.281 469.972 289.59Z"/><path fill="#FEFEFD" d="M983.214 152.9C988.595 152.308 993.871 154.68 996.99 159.097C1000.12 163.515 1000.61 169.281 998.255 174.156C995.904 179.032 991.098 182.249 985.694 182.56C977.643 183.024 970.68 176.981 970.015 168.939C969.337 160.899 975.19 153.786 983.214 152.9Z"/><path fill="#FEFEFD" d="M335.773 154.245C340.756 152.02 346.557 152.7 350.89 156.019C355.221 159.338 357.394 164.763 356.538 170.153C355.682 175.545 351.95 180.036 346.814 181.857C339.275 184.523 330.994 180.77 328.03 173.353C325.065 165.936 328.477 157.503 335.773 154.245Z"/><path fill="#FEFEFD" d="M576.645 545.258C577.068 545.244 577.464 545.228 577.859 545.213L577.877 545.213L577.879 545.213C581.678 545.063 584.35 544.957 586.907 547.346C588.004 558.791 587.597 577.295 587.265 592.405L587.265 592.418L587.265 592.517C587.162 597.028 587.073 601.233 587.022 604.854L586.85 604.878C584.986 605.131 584.066 605.255 583.138 605.228C582.19 605.201 581.233 605.013 579.265 604.638C575.725 600.499 576.263 569.09 576.543 552.794C576.595 549.59 576.645 546.97 576.645 545.258Z"/><path fill="#FEFEFD" d="M347.427 613.296L347.505 613.295C350.187 613.275 351.555 613.265 354.481 615.033C355.681 625.915 355.338 645.74 355.07 661.151L355.069 661.196C354.992 665.647 354.915 669.727 354.889 673.116C354.546 673.167 354.225 673.216 353.944 673.262L353.93 673.263L353.926 673.263C350.774 673.747 350.564 673.778 346.929 672.976C343.29 668.138 344.073 637.208 344.484 620.979L344.489 620.765C344.578 617.578 344.642 614.973 344.655 613.268C345.743 613.307 346.64 613.302 347.427 613.296Z"/><path fill="#FEFEFD" d="M987.419 613.142C987.801 613.133 988.159 613.125 988.492 613.115C991.954 613.025 992.773 613.006 996.58 614.07C998.472 618.137 997.998 652.057 997.781 667.228C997.743 669.859 997.717 671.926 997.705 673.175C997.335 673.233 997.002 673.287 996.683 673.335L996.678 673.336C993.552 673.829 993.32 673.865 989.68 672.968C986.09 668.133 986.856 636.984 987.266 620.759C987.343 617.513 987.407 614.863 987.419 613.142Z"/><path fill="#FEFEFD" d="M346.123 521.063C351.708 522.096 351.043 521.093 354.494 524.367C355.682 535.67 355.324 570.086 354.506 581.965C351.005 581.692 349.038 581.399 345.575 580.75C343.785 575.029 343.875 527.424 346.123 521.063Z"/><path fill="#FEFEFD" d="M988.019 521.419C989.451 521.562 990.485 521.61 991.316 521.647C993.782 521.76 994.23 521.779 997.016 524.033C998.268 529.95 997.949 559.546 997.769 574.742C997.743 577.661 997.717 580.047 997.705 581.634C997.137 581.629 996.579 581.637 996.04 581.645L995.934 581.646L995.84 581.647L995.833 581.647L995.831 581.648L995.828 581.648C992.984 581.689 990.533 581.724 987.993 580.196C986.882 570.735 986.856 530.901 988.019 521.419Z"/><path fill="#FEFEFD" d="M465.985 545.243C466.687 545.241 467.34 545.226 467.94 545.213L467.941 545.212L467.948 545.212C470.959 545.141 472.938 545.095 475.709 546.897C476.975 555.325 476.488 580.462 476.182 596.053C476.105 599.677 476.042 602.785 476.016 605.047L475.517 605.108C471.927 605.535 471.914 605.536 468.081 604.642C464.892 600.666 465.548 568.106 465.869 552.219L465.869 552.199L465.87 552.12C465.934 549.125 465.985 546.73 465.985 545.243Z"/><path fill="#FDD01D" d="M761.574 542.913L761.601 542.912L761.605 542.911C772.003 542.252 784.308 541.475 789.609 547.535C790.274 552.091 790.044 553.274 789.29 557.141C789.201 557.63 789.099 558.16 788.984 558.747C786.504 558.694 783.398 558.867 780.039 559.055C769.816 559.627 757.179 560.332 752.259 555.172C750.98 551.344 751.403 548.886 752.028 545.349C752.143 544.701 752.259 544.014 752.374 543.277C755.007 543.325 758.137 543.129 761.457 542.921L761.514 542.917L761.574 542.913Z"/><path fill="#FDD01D" d="M855.086 543.454C857.385 543.419 860.058 543.27 862.906 543.113C873.308 542.539 886.074 541.836 891.735 545.982C893.804 549.149 893.445 552.338 893.025 556.073L893.025 556.074L893.025 556.09C892.936 556.889 892.847 557.712 892.77 558.565C890.458 558.61 887.799 558.768 884.975 558.936L884.957 558.936L884.955 558.936C874.561 559.555 861.922 560.308 856.057 555.922C854.145 552.696 854.471 549.555 854.853 545.874L854.853 545.871L854.856 545.847C854.933 545.074 855.022 544.279 855.086 543.454Z"/><path fill="#FDD01D" d="M803.767 543.372C807.219 543.442 810.95 543.219 814.72 542.992L814.739 542.99C824.187 542.425 833.865 541.849 840.033 545.823C842.09 549.911 841.975 551.34 841.694 554.715C841.605 555.77 841.502 557.016 841.439 558.591C838.729 558.61 835.688 558.782 832.519 558.962L832.512 558.962C822.241 559.54 810.616 560.193 804.676 555.947C802.733 552.698 803.091 549.543 803.513 545.832C803.602 545.04 803.692 544.222 803.767 543.372Z"/><path fill="#FDD01D" d="M212.744 543.472C215.222 543.508 218.302 543.328 221.638 543.131L221.648 543.13L221.652 543.129C231.834 542.533 244.424 541.796 249.532 546.685C250.924 550.453 250.543 553.039 250.005 556.603C249.902 557.278 249.787 557.988 249.686 558.748C246.939 558.687 243.691 558.871 240.268 559.066L240.267 559.066C229.98 559.65 217.982 560.331 212.372 554.83C211.421 551.3 211.856 548.733 212.414 545.448L212.414 545.447L212.424 545.387C212.527 544.779 212.641 544.142 212.744 543.472Z"/><path fill="#FDD01D" d="M273.349 543.007L273.364 543.007L273.369 543.005C283.718 542.324 295.854 541.526 301.336 547.55C302.102 551.245 301.706 553.576 301.145 556.832C301.042 557.437 300.939 558.072 300.825 558.753C298.337 558.701 295.247 558.875 291.899 559.066L291.847 559.068L291.828 559.07L291.82 559.07C281.599 559.653 269.044 560.368 264.151 555.174C262.911 551.318 263.321 548.948 263.933 545.431C264.048 544.797 264.163 544.122 264.278 543.396C266.934 543.43 270.031 543.226 273.308 543.01L273.349 543.007Z"/><path fill="#FDD01D" d="M170.434 543.058L170.536 543.053L170.561 543.051L170.563 543.051C180.326 542.482 190.944 541.864 197.039 545.94C199.275 549.117 198.994 552.232 198.648 556.028C198.571 556.824 198.509 557.65 198.445 558.511C195.709 558.548 192.682 558.738 189.563 558.936L189.553 558.937L189.54 558.938C179.335 559.579 168.064 560.286 161.822 555.947C159.779 552.704 160.159 549.623 160.62 545.901L160.621 545.889C160.722 545.098 160.825 544.281 160.901 543.426C163.829 543.44 167.081 543.252 170.434 543.058Z"/><path fill="#FDD01D" d="M120.48 542.971L120.508 542.97L120.509 542.97C129.966 542.414 139.831 541.837 145.708 545.975C147.838 549.146 147.536 552.326 147.179 556.083L147.179 556.086L147.178 556.102C147.101 556.905 147.024 557.735 146.96 558.595C143.663 558.538 140.054 558.764 136.377 558.994L136.373 558.994L136.324 558.994C126.73 559.592 116.713 560.216 110.746 555.943C108.752 552.689 109.097 549.517 109.52 545.777C109.609 544.986 109.698 544.172 109.762 543.326C113.09 543.407 116.746 543.192 120.48 542.971Z"/><path fill="#FDD01D" d="M916.3 543.066L916.333 543.065L916.34 543.065C926.266 542.504 937.738 541.859 942.911 546.327C944.701 549.792 944.305 552.737 943.794 556.415C943.704 557.151 943.589 557.918 943.5 558.722C941.004 558.653 937.86 558.827 934.435 559.017L934.409 559.018L934.401 559.018L934.397 559.02L934.388 559.02C924.243 559.58 911.742 560.269 906.839 555.205C905.55 551.315 905.969 548.979 906.605 545.435L906.606 545.429L906.607 545.422C906.724 544.792 906.851 544.123 906.966 543.401C909.692 543.441 912.9 543.259 916.3 543.066Z"/><path fill="#FEFEFD" d="M553.106 660.1L553.145 660.098C564.851 659.667 578.46 659.168 586.498 661.708C588.939 664.123 588.951 664.199 589.194 666.497C589.271 667.225 589.372 668.18 589.577 669.505C583.661 670.598 546.411 671.314 542.234 668.707L541.404 660.388C544.804 660.404 548.826 660.257 553.106 660.1Z"/><path fill="#FEFEFD" d="M464.005 660.522C464.924 660.512 466.406 660.482 468.285 660.446L468.29 660.446C480.115 660.21 507.617 659.663 510.288 661.859L510.62 670.254C506.889 670.214 502.568 670.375 498.046 670.544C486.941 670.961 474.598 671.42 466.637 669.065C465.09 667.547 464.439 666.971 464.171 666.251C463.971 665.719 463.984 665.11 464.01 663.988L464.011 663.926C464.029 663.108 464.052 662.028 464.005 660.522Z"/><path fill="#FEFEFD" d="M830.564 159.328C833.606 157.533 837.387 157.529 840.429 159.319C843.471 161.11 845.298 164.409 845.209 167.94C845.118 171.471 843.126 174.671 839.995 176.301C835.319 178.73 829.568 177.001 827.011 172.401C824.456 167.8 826.041 162.004 830.564 159.328Z"/><path fill="#FEFEFD" d="M193.103 157.945C198.355 157.603 202.916 161.532 203.363 166.783C203.799 172.032 199.965 176.669 194.725 177.211C191.237 177.569 187.838 176.021 185.819 173.161C183.814 170.303 183.494 166.578 185.002 163.423C186.51 160.266 189.615 158.172 193.103 157.945Z"/><path fill="#FEFEFD" d="M576.786 489.022C577.807 489.056 578.664 489.061 579.392 489.065C582.766 489.088 583.47 489.092 586.307 491.641C588.004 495.757 587.622 503.291 587.303 509.521C587.214 511.319 587.123 513.008 587.099 514.474C585.705 514.432 584.675 514.455 583.854 514.474L583.834 514.475L583.788 514.477L583.776 514.477C581.31 514.536 580.823 514.548 577.884 512.504C575.598 507.5 576.084 500.079 576.518 493.567C576.632 491.981 576.735 490.452 576.786 489.022Z"/><path fill="#FEFEFD" d="M466.189 488.772C467.647 488.91 468.706 488.952 469.536 488.986C472.055 489.086 472.463 489.102 475.198 491.419C477.146 496.279 476.747 503.341 476.391 509.638L476.391 509.648L476.386 509.706C476.297 511.404 476.208 513.045 476.157 514.573C474.876 514.521 473.934 514.529 473.18 514.539L473.114 514.539C470.802 514.563 470.291 514.568 467.429 512.753C464.785 506.832 465.294 500.435 465.832 493.754C465.973 492.11 466.1 490.448 466.189 488.772Z"/><path fill="white" d="M520.665 299.332L520.663 299.341C520.471 300.923 520.267 302.491 520.139 304.005C512.524 301.779 513.688 293.095 514.785 284.975C514.989 283.425 515.195 281.898 515.335 280.438C522.742 282.987 521.687 291.296 520.665 299.332Z"/><path fill="white" d="M513.431 343.108C521.929 345.659 520.715 353.972 519.54 362.012C519.309 363.593 519.079 365.163 518.926 366.676C510.227 364.453 511.547 355.797 512.784 347.688L512.791 347.644C513.035 346.097 513.278 344.568 513.431 343.108Z"/><path fill="white" d="M514.453 311.518C517.085 312.495 516.92 312.695 518.746 315.02C520.178 321.571 520.446 329.781 517.213 335.769C514.619 334.41 515.488 334.905 513.405 332.507C511.846 325.822 512.025 317.923 514.453 311.518Z"/><path fill="white" d="M533.813 280.238C536.227 280.946 536.073 280.958 538.03 282.787C539.691 288.696 539.077 294.78 538.451 300.947C538.349 301.975 538.247 303.006 538.144 304.038C535.487 303.466 535.487 303.727 533.659 301.534C531.871 294.252 532.624 288.815 533.606 281.736L533.607 281.729C533.672 281.241 533.736 280.743 533.813 280.238Z"/><path fill="white" d="M514.607 374.187C517.405 375.165 517.225 375.365 519.168 377.691C520.689 384.242 520.97 392.453 517.546 398.439C514.785 397.081 515.705 397.574 513.496 395.177C511.846 388.494 512.025 380.593 514.607 374.187Z"/><path fill="white" d="M535.039 311.743C537.608 312.45 537.441 312.462 539.525 314.293C541.271 320.147 540.635 326.172 539.99 332.28L539.99 332.288L539.972 332.45C539.857 333.48 539.742 334.51 539.64 335.543C536.829 334.973 536.815 335.232 534.885 333.038C532.982 325.751 533.774 320.318 534.821 313.234C534.885 312.745 534.962 312.247 535.039 311.743Z"/><path fill="white" d="M514.607 404.498C517.405 405.474 517.225 405.676 519.168 408.001C520.689 414.552 520.97 422.762 517.546 428.75C514.785 427.391 515.705 427.883 513.496 425.486C511.846 418.803 512.025 410.904 514.607 404.498Z"/><path fill="#FDD01D" d="M847.346 774.923L847.363 774.923C849.452 774.94 851.361 774.954 852.977 774.949C855.822 774.941 858.667 774.915 861.503 774.888L861.508 774.887L861.514 774.887C889.026 774.63 915.942 774.379 939.758 791.273C960.554 805.8 973.437 827.455 977.681 852.428C982.804 882.6 978.107 909.624 960.8 935.022C933.416 975.194 894.643 974.608 854.338 973.993L854.024 973.989L853.916 973.989L853.906 973.989C843.112 973.83 832.199 973.669 821.378 974.306C821.973 965.628 821.897 955.089 821.643 946.289C820.864 919.505 821.333 892.33 821.803 865.152L821.813 864.537C822.333 834.799 822.844 805.062 821.747 775.837C827.735 774.774 838.944 774.859 847.346 774.923ZM855.122 943.785C857.675 943.813 860.123 943.86 862.505 943.908C888.338 944.361 905.059 944.654 927.121 925.144C952.16 900.408 954.268 850.566 928.539 825.12C908.679 805.479 887.345 804.335 861.172 804.552L855.141 804.619L855.122 943.785Z"/><path fill="white" d="M534.592 342.908C537.364 343.617 537.186 343.629 539.434 345.456C541.326 351.363 540.623 357.446 539.91 363.609L539.909 363.618C539.794 364.645 539.677 365.675 539.562 366.708C536.522 366.136 536.509 366.397 534.425 364.203C532.372 356.935 533.234 351.507 534.355 344.449L534.355 344.437L534.363 344.399C534.438 343.911 534.515 343.415 534.592 342.908Z"/><path fill="white" d="M534.592 374.412C537.364 375.121 537.186 375.133 539.434 376.963C541.325 382.865 540.624 388.939 539.912 395.1L539.911 395.107L539.909 395.12L539.909 395.122C539.794 396.149 539.677 397.181 539.562 398.214C536.522 397.642 536.509 397.903 534.425 395.709C532.374 388.439 533.234 383.013 534.353 375.957L534.354 375.953L534.355 375.943L534.363 375.904C534.438 375.415 534.515 374.918 534.592 374.412Z"/><path fill="white" d="M534.592 404.724C537.364 405.431 537.186 405.443 539.434 407.275C541.326 413.179 540.623 419.259 539.91 425.421L539.909 425.432C539.794 426.46 539.677 427.493 539.562 428.524C536.522 427.952 536.509 428.213 534.425 426.019C532.372 418.747 533.233 413.318 534.355 406.255L534.363 406.214C534.438 405.727 534.515 405.23 534.592 404.724Z"/><path fill="white" d="M216.252 759.612C225.959 759.67 235.071 759.769 244.759 760.265L245.592 857.286C303.345 805.791 383.747 892.637 326.323 960.808C301.445 983.919 271.784 982.831 245.195 963.511L245.299 974.202C234.542 974.353 223.785 974.334 213.028 974.135L212.972 818.768C212.972 816.688 212.905 813.003 212.82 808.456C212.528 792.571 212.045 766.151 213.388 760.782L216.252 759.612ZM279.128 950.798C327.458 944.304 320.407 867.845 276.491 870.065C227.935 881.182 236.896 949.068 279.128 950.798Z"/><path fill="white" d="M97.0223 763.377C97.9194 763.737 99.0158 764.177 100.312 764.698C105.755 773.794 111.439 786.93 115.838 796.297L173.594 919.851C181.203 936.147 187.621 954.153 196.78 969.362C197.395 970.393 197.621 970.554 197.668 970.751C197.691 970.845 197.673 970.948 197.636 971.155C197.583 971.452 197.494 971.962 197.433 972.963C193.741 974.918 175.019 974.581 165.565 974.41L165.53 974.41C163.905 974.381 162.553 974.353 161.598 974.343C157.402 963.001 147.004 938.651 141.795 928.141C137.604 925.682 118.115 926.158 107.626 926.415L107.409 926.421C105.409 926.477 103.75 926.515 102.608 926.525L56.0353 926.629C53.9293 933.282 37.8331 968.54 33.8659 973.408C29.4251 975.657 13.792 975.066 4.53666 974.716L4.48324 974.716L4.39556 974.712C2.66012 974.637 1.15529 974.58 0.000243913 974.551C3.87663 962.31 12.9659 944.37 18.608 932.233L50.5189 863.487L79.4525 800.741C84.6352 789.374 91.0145 773.999 97.0223 763.377ZM99.7729 896.712L126.037 896.76C124.216 889.414 102.013 836.851 97.3721 833.221C94.0402 845.821 71.2847 887.448 71.1778 895.71C73.316 897.369 89.169 896.969 96.6562 896.78L96.677 896.78L96.7152 896.779C98.0451 896.75 99.1065 896.722 99.7729 896.712Z"/><path fill="white" d="M717.545 842.125C755.137 836.756 789.968 862.882 795.337 900.474C800.706 938.075 774.58 972.897 736.979 978.266C699.387 983.625 664.573 957.5 659.205 919.917C653.836 882.325 679.953 847.504 717.545 842.125ZM731.733 950.533C768.795 943.189 775.478 899.349 747.887 876.153C742.442 871.578 732.214 870.671 725.286 870.038C715.096 871.834 703.763 875.974 698.47 885.246C681.163 915.55 694.774 951.186 731.733 950.533Z"/><path fill="white" d="M473.902 842.711C476.785 842.512 479.678 842.38 482.56 842.323C499.782 841.908 515.218 846.595 527.657 858.808C546.241 877.051 546.212 894.755 546.468 918.66C530.427 919.218 513.469 919.01 496.474 918.792L496.42 918.791L496.372 918.79C482.077 918.612 467.744 918.434 453.882 918.707C462.021 945.798 482.306 963.36 510.152 941.648C513.564 938.992 515.171 931.222 519.879 928.689C524.028 928.916 528.007 931.25 531.807 933.094L546.893 940.825C537.261 957.348 525.455 970.506 506.078 975.629C439.618 993.173 401.119 927.347 430.961 871.446C439.921 854.649 456.066 847.068 473.902 842.711ZM456.708 892.855L492.987 892.751L514.179 892.666C505.596 874.593 499.584 867.571 478.534 869.877C466.218 875.237 462.162 879.055 457.096 891.863L456.708 892.855Z"/><path fill="white" d="M571.835 774.692L571.866 774.693C575.769 774.727 579.513 774.761 582.907 774.763L668.478 775.148L668.696 804.155L621.641 804.212L621.368 927.158L621.585 974.088C611.924 974.76 597.387 974.533 587.632 974.135L587.869 804.193C571.904 804.306 555.929 804.278 539.965 804.127C539.955 794.425 540.021 784.72 540.173 775.017C549.157 774.487 561.073 774.594 571.818 774.691L571.835 774.692Z"/><path fill="#FDD01D" d="M1070 913.676L1070 912.283C1069.99 910.807 1069.96 909.312 1069.91 907.799C1069.06 883.706 1069.28 859.168 1069.51 834.649C1069.7 814.429 1069.88 794.226 1069.46 774.282C1066.86 774.283 1064.04 774.257 1061.11 774.23C1053.28 774.158 1044.74 774.081 1037.99 774.487C1037.55 800.928 1037.68 827.591 1037.81 854.216L1037.82 855.471L1037.84 858.719L1037.86 861.958L1037.87 865.192C1037.93 878.126 1037.99 891.039 1037.94 903.905C1037.85 937.81 1032.19 962.944 991.926 940.259C974.78 958.644 966.905 970.78 998.448 976.008C1048.46 985.395 1069.81 958.3 1070 913.676Z"/><path fill="white" d="M367.763 759.458C378.34 759.246 388.926 759.27 399.503 759.527C399.475 765.154 399.568 779.698 399.691 798.726L399.693 799.042L399.701 800.424L399.702 800.557L399.702 800.717C400.081 862.895 400.733 969.872 398.691 974.107C391.459 974.372 383.482 974.296 375.787 974.22C372.829 974.192 369.909 974.164 367.082 974.154C366.826 953.851 365.068 765.622 367.763 759.458Z"/></svg>